<svg id="eUnSL5tGowy1" xmlns="http://www.w3.org/2000/svg" xmlns:xlink="http://www.w3.org/1999/xlink" viewBox="0 0 300 300" shape-rendering="geometricPrecision" text-rendering="geometricPrecision"><ellipse rx="4.486134" ry="4.486134" transform="translate(40.837413 40.885808)" fill="#b6b6b6" stroke-width="0"/><ellipse rx="4.486134" ry="4.486134" transform="translate(40.837413 165.410006)" fill="#b6b6b6" stroke-width="0"/><ellipse rx="4.486134" ry="4.486134" transform="translate(165.721045 40.885807)" fill="#b6b6b6" stroke-width="0"/><ellipse rx="4.486134" ry="4.486134" transform="translate(165.721045 165.410005)" fill="#b6b6b6" stroke-width="0"/><ellipse rx="4.486134" ry="4.486134" transform="translate(40.837413 103.963567)" fill="#b6b6b6" stroke-width="0"/><ellipse rx="4.486134" ry="4.486134" transform="translate(40.837413 228.487765)" fill="#b6b6b6" stroke-width="0"/><ellipse rx="4.486134" ry="4.486134" transform="translate(165.721045 103.963566)" fill="#b6b6b6" stroke-width="0"/><ellipse rx="4.486134" ry="4.486134" transform="translate(165.721045 228.487764)" fill="#b6b6b6" stroke-width="0"/><ellipse rx="4.486134" ry="4.486134" transform="translate(40.837413 71.512235)" fill="#b6b6b6" stroke-width="0"/><ellipse rx="4.486134" ry="4.486134" transform="translate(40.837413 196.036433)" fill="#b6b6b6" stroke-width="0"/><ellipse rx="4.486134" ry="4.486134" transform="translate(165.721045 71.512234)" fill="#b6b6b6" stroke-width="0"/><ellipse rx="4.486134" ry="4.486134" transform="translate(165.721045 196.036432)" fill="#b6b6b6" stroke-width="0"/><ellipse rx="4.486134" ry="4.486134" transform="translate(40.837413 134.589995)" fill="#b6b6b6" stroke-width="0"/><ellipse rx="4.486134" ry="4.486134" transform="translate(40.837413 259.114193)" fill="#b6b6b6" stroke-width="0"/><ellipse rx="4.486134" ry="4.486134" transform="translate(165.721045 134.589994)" fill="#b6b6b6" stroke-width="0"/><ellipse rx="4.486134" ry="4.486134" transform="translate(165.721045 259.114192)" fill="#b6b6b6" stroke-width="0"/><ellipse rx="4.486134" ry="4.486134" transform="translate(102.28385 40.885808)" fill="#b6b6b6" stroke-width="0"/><ellipse rx="4.486134" ry="4.486134" transform="translate(102.28385 165.410006)" fill="#b6b6b6" stroke-width="0"/><ellipse rx="4.486134" ry="4.486134" transform="translate(228.167482 40.885807)" fill="#b6b6b6" stroke-width="0"/><ellipse rx="4.486134" ry="4.486134" transform="translate(228.167482 165.410005)" fill="#b6b6b6" stroke-width="0"/><ellipse rx="4.486134" ry="4.486134" transform="translate(102.28385 103.963568)" fill="#b6b6b6" stroke-width="0"/><ellipse rx="4.486134" ry="4.486134" transform="translate(102.28385 228.487766)" fill="#b6b6b6" stroke-width="0"/><ellipse rx="4.486134" ry="4.486134" transform="translate(228.167482 103.963567)" fill="#b6b6b6" stroke-width="0"/><ellipse rx="4.486134" ry="4.486134" transform="translate(228.167482 228.487765)" fill="#b6b6b6" stroke-width="0"/><ellipse rx="4.486134" ry="4.486134" transform="translate(70.744972 40.885808)" fill="#b6b6b6" stroke-width="0"/><ellipse rx="4.486134" ry="4.486134" transform="translate(70.744972 165.410006)" fill="#b6b6b6" stroke-width="0"/><ellipse rx="4.486134" ry="4.486134" transform="translate(196.628604 40.885807)" fill="#b6b6b6" stroke-width="0"/><ellipse rx="4.486134" ry="4.486134" transform="translate(196.628604 165.410005)" fill="#b6b6b6" stroke-width="0"/><ellipse rx="4.486134" ry="4.486134" transform="translate(70.744972 103.963567)" fill="#b6b6b6" stroke-width="0"/><ellipse rx="4.486134" ry="4.486134" transform="translate(70.744972 228.487765)" fill="#b6b6b6" stroke-width="0"/><ellipse rx="4.486134" ry="4.486134" transform="translate(196.628604 103.963566)" fill="#b6b6b6" stroke-width="0"/><ellipse rx="4.486134" ry="4.486134" transform="translate(196.628604 228.487764)" fill="#b6b6b6" stroke-width="0"/><ellipse rx="4.486134" ry="4.486134" transform="translate(133.278955 40.885808)" fill="#b6b6b6" stroke-width="0"/><ellipse rx="4.486134" ry="4.486134" transform="translate(133.278955 165.410006)" fill="#b6b6b6" stroke-width="0"/><ellipse rx="4.486134" ry="4.486134" transform="translate(259.162587 40.885807)" fill="#b6b6b6" stroke-width="0"/><ellipse rx="4.486134" ry="4.486134" transform="translate(259.162587 165.410005)" fill="#b6b6b6" stroke-width="0"/><ellipse rx="4.486134" ry="4.486134" transform="translate(133.278955 103.963567)" fill="#b6b6b6" stroke-width="0"/><ellipse rx="4.486134" ry="4.486134" transform="translate(133.278955 228.487765)" fill="#b6b6b6" stroke-width="0"/><ellipse rx="4.486134" ry="4.486134" transform="translate(259.162587 103.963566)" fill="#b6b6b6" stroke-width="0"/><ellipse rx="4.486134" ry="4.486134" transform="translate(259.162587 228.487764)" fill="#b6b6b6" stroke-width="0"/><ellipse rx="4.486134" ry="4.486134" transform="translate(102.28385 71.512235)" fill="#b6b6b6" stroke-width="0"/><ellipse rx="4.486134" ry="4.486134" transform="translate(102.28385 196.036433)" fill="#b6b6b6" stroke-width="0"/><ellipse rx="4.486134" ry="4.486134" transform="translate(228.167482 71.512234)" fill="#b6b6b6" stroke-width="0"/><ellipse rx="4.486134" ry="4.486134" transform="translate(228.167482 196.036432)" fill="#b6b6b6" stroke-width="0"/><ellipse rx="4.486134" ry="4.486134" transform="translate(102.28385 134.589994)" fill="#b6b6b6" stroke-width="0"/><ellipse rx="4.486134" ry="4.486134" transform="translate(102.28385 259.114192)" fill="#b6b6b6" stroke-width="0"/><ellipse rx="4.486134" ry="4.486134" transform="translate(228.167482 134.589993)" fill="#b6b6b6" stroke-width="0"/><ellipse rx="4.486134" ry="4.486134" transform="translate(228.167482 259.114191)" fill="#b6b6b6" stroke-width="0"/><ellipse rx="4.486134" ry="4.486134" transform="translate(70.744972 71.512235)" fill="#b6b6b6" stroke-width="0"/><ellipse rx="4.486134" ry="4.486134" transform="translate(70.744972 196.036433)" fill="#b6b6b6" stroke-width="0"/><ellipse rx="4.486134" ry="4.486134" transform="translate(196.628604 71.512234)" fill="#b6b6b6" stroke-width="0"/><ellipse rx="4.486134" ry="4.486134" transform="translate(196.628604 196.036432)" fill="#b6b6b6" stroke-width="0"/><ellipse rx="4.486134" ry="4.486134" transform="translate(70.744972 134.589994)" fill="#b6b6b6" stroke-width="0"/><ellipse rx="4.486134" ry="4.486134" transform="translate(70.744972 259.114192)" fill="#b6b6b6" stroke-width="0"/><ellipse rx="4.486134" ry="4.486134" transform="translate(196.628604 134.589993)" fill="#b6b6b6" stroke-width="0"/><ellipse rx="4.486134" ry="4.486134" transform="translate(196.628604 259.114191)" fill="#b6b6b6" stroke-width="0"/><ellipse rx="4.486134" ry="4.486134" transform="translate(133.278955 71.512235)" fill="#b6b6b6" stroke-width="0"/><ellipse rx="4.486134" ry="4.486134" transform="translate(133.278955 196.036433)" fill="#b6b6b6" stroke-width="0"/><ellipse rx="4.486134" ry="4.486134" transform="translate(259.162587 71.512234)" fill="#b6b6b6" stroke-width="0"/><ellipse rx="4.486134" ry="4.486134" transform="translate(259.162587 196.036432)" fill="#b6b6b6" stroke-width="0"/><ellipse rx="4.486134" ry="4.486134" transform="translate(133.278955 134.589995)" fill="#b6b6b6" stroke-width="0"/><ellipse rx="4.486134" ry="4.486134" transform="translate(133.278955 259.114193)" fill="#b6b6b6" stroke-width="0"/><ellipse rx="4.486134" ry="4.486134" transform="translate(259.162587 134.589994)" fill="#b6b6b6" stroke-width="0"/><ellipse rx="4.486134" ry="4.486134" transform="translate(259.162587 259.114192)" fill="#b6b6b6" stroke-width="0"/></svg>
